<svg xmlns="http://www.w3.org/2000/svg" viewBox="200 120 625 785" role="img" aria-labelledby="title">
  <title>Kiro</title>
  <g fill="#f01c43">
    <path d="M779.62,607.66c0,91.07-47.71,177.56-124.64,226.27c-22.71,14.38-48.12,30.34-76.02,30.04c-32.19-0.34-60.78-32.46-52.62-64.84c5.62-22.3,26.55-38.12,42.24-53.5c19.96-19.57,39.92-39.15,59.87-58.72c19.31-18.94,39.41-39.17,46.51-65.28c5.3-19.47,2.54-40.91-7-58.69c-9.54-17.78-25.68-31.82-44.41-39.35c-16.22-6.53-34.54-8.23-51.4-3.61c-24.31,6.67-43.25,25.34-60.21,43.99c-16.1-19.01-35.58-36.49-59.54-43.3c-16.73-4.76-34.97-3.91-51.27,2.19c-21.55,8.07-39.44,25.43-48.16,46.73s-8.13,46.22,1.58,67.09c8.52,18.31,23.27,32.84,37.71,46.96c24.87,24.3,49.74,48.6,74.61,72.9c12.4,12.12,25.29,25.03,30.03,41.71c8.72,30.67-12.1,57.44-41.9,63.95c-36.3,7.92-73-18.05-100.67-38.24c-35.32-25.79-64.15-60.21-83.25-99.56c-17.61-36.28-26.73-76.41-26.73-116.73c0-146.44,51.43-222.22,93.55-267.62c0,0,32.09,53.29,79.33,85.27c0,0,17.1-155.14,139.75-265.28C557,160.02,779.62,390.15,779.62,607.66z"/>
    <circle cx="512" cy="661.4" r="45.99"/>
  </g>
</svg>
