<svg xmlns="http://www.w3.org/2000/svg" viewBox="0 0 64 64" width="64" height="64">
  <!-- Icône TestFlight reconstituée (hélice blanche sur fond bleu) -->
  <defs>
    <linearGradient id="tf-bg" x1="0" y1="0" x2="0" y2="1">
      <stop offset="0" stop-color="#54b0fb"/>
      <stop offset="1" stop-color="#1a6cf5"/>
    </linearGradient>
  </defs>
  <rect x="1.5" y="1.5" width="61" height="61" rx="14.5" fill="url(#tf-bg)"/>
  <circle cx="32" cy="32" r="21.5" fill="none" stroke="#ffffff" stroke-width="2.3"/>
  <g fill="#ffffff">
    <path id="b" d="M32 30.5 C 27.6 27.6 25.2 21.6 26.9 16.2 C 27.7 13.9 29.7 12.8 31.6 13.4 C 33.6 14 34.9 15.9 35.2 18.4 C 35.8 23.4 34.6 28 32 30.5 Z"/>
    <path d="M32 30.5 C 27.6 27.6 25.2 21.6 26.9 16.2 C 27.7 13.9 29.7 12.8 31.6 13.4 C 33.6 14 34.9 15.9 35.2 18.4 C 35.8 23.4 34.6 28 32 30.5 Z" transform="rotate(120 32 32)"/>
    <path d="M32 30.5 C 27.6 27.6 25.2 21.6 26.9 16.2 C 27.7 13.9 29.7 12.8 31.6 13.4 C 33.6 14 34.9 15.9 35.2 18.4 C 35.8 23.4 34.6 28 32 30.5 Z" transform="rotate(240 32 32)"/>
    <circle cx="32" cy="32" r="3" />
  </g>
</svg>
